<svg xmlns="http://www.w3.org/2000/svg" xmlns:xlink="http://www.w3.org/1999/xlink" width="52" height="40" version="1.1" viewBox="0 0 52 40"><title>Slice 1</title><desc>Created with Sketch.</desc><defs><linearGradient id="linearGradient-1" x1="66.186%" x2="17.643%" y1="65.415%" y2="15.958%"><stop offset="0%" stop-color="#000" stop-opacity="0"/><stop offset="100%" stop-color="#000" stop-opacity=".055"/><stop offset="100%" stop-color="#000" stop-opacity=".06"/></linearGradient></defs><g id="Page-1" fill="none" fill-rule="evenodd" stroke="none" stroke-width="1"><g id="video"><rect id="Rectangle" width="50" height="37" x="0" y="0"/><polygon id="Path-2" fill="url(#linearGradient-1)" points="29.807 6.36 33.778 10.331 33.99 6.553 51.597 25.168 36.925 39.167 16.342 17.89"/><path id="Shape" fill="#FFF" d="M30,10.5 L30,7 C30,6.45 29.55,6 29,6 L17,6 C16.45,6 16,6.45 16,7 L16,17 C16,17.55 16.45,18 17,18 L29,18 C29.55,18 30,17.55 30,17 L30,13.5 L34,17.5 L34,6.5 L30,10.5 Z"/></g></g></svg>